Coordinates

Units are S.I. units (second, meters, Newtons, ...)
If the header above contains a line with 'inDegrees', this indicates whether rotational values are in degrees (yes) or radians (no).

inDegrees=no
nColumns=22
nRows=26
DataType=double
version=3
OpenSimVersion=4.6-2026-03-31-d6972f9e6
endheader
time	/jointset/ground_pelvis/pelvis_tilt/value	/jointset/ground_pelvis/pelvis_list/value	/jointset/ground_pelvis/pelvis_rotation/value	/jointset/ground_pelvis/pelvis_tx/value	/jointset/ground_pelvis/pelvis_ty/value	/jointset/ground_pelvis/pelvis_tz/value	/jointset/hip_r/hip_flexion_r/value	/jointset/hip_r/hip_adduction_r/value	/jointset/hip_r/hip_rotation_r/value	/jointset/walker_knee_r/knee_angle_r/value	/jointset/patellofemoral_r/knee_angle_r_beta/value	/jointset/ankle_r/ankle_angle_r/value	/jointset/hip_l/hip_flexion_l/value	/jointset/hip_l/hip_adduction_l/value	/jointset/hip_l/hip_rotation_l/value	/jointset/walker_knee_l/knee_angle_l/value	/jointset/patellofemoral_l/knee_angle_l_beta/value	/jointset/ankle_l/ankle_angle_l/value	/jointset/back/lumbar_extension/value	/jointset/back/lumbar_bending/value	/jointset/back/lumbar_rotation/value
21.655	-0.2215328414283099	0.09012383736387782	-0.06582707151734493	-2.258955501061632	0.9319261282175068	2.470354929405034	0.387184616558834	-0.2592882190018352	-0.1099630649246185	0.2976670190023947	0.2976670194603242	0.1025812133129503	0.3737502728214873	-0.08206053344552924	-0.06841214307649894	0.4044868449987052	0.4044868433152131	0.1493480292053656	-0.1130977555843651	-0.04298329081940402	0.008226898336110266
21.66	-0.2289741394758423	0.08984070071808792	-0.06434138496480471	-2.260860945238583	0.9302660942530079	2.470224878011141	0.4025248980515879	-0.2595671192658089	-0.1076636163818639	0.3103272790699231	0.3103272795803134	0.1084540866551245	0.389478030170568	-0.08348632845354301	-0.06576086665263604	0.4176547069397519	0.4176547053619468	0.1541476664007851	-0.1126818731154904	-0.04127421007011692	0.00747642223546662
21.665	-0.2364059004361043	0.08955648869609123	-0.06286030922649362	-2.262766271284161	0.928600447223083	2.470095013000898	0.4178668153751024	-0.2598466094332397	-0.1053576399924142	0.3230120062497085	0.3230120068105489	0.1143331092977082	0.4052022318422969	-0.0849099057485028	-0.06311175926411433	0.4308377743439735	0.4308377728725323	0.158948251667026	-0.1122747276502816	-0.03956648167737076	0.006725475215865069
21.67	-0.2438186974941797	0.08927010514015146	-0.06138831084244432	-2.264671377468035	0.9269236104697223	2.469965511247184	0.4332120411470589	-0.2601272652867329	-0.1030389012203284	0.3357455432787582	0.3357455438860798	0.120224535095029	0.420919456346814	-0.08632913171509307	-0.06046702171243985	0.4440512151838923	0.4440512138202183	0.1637509780125066	-0.1118850704767686	-0.03786142713689143	0.005973483601893135
21.675	-0.2512033076254742	0.0889804163289194	-0.05992958422401894	-2.266576193130438	0.9252300811378813	2.469836532295549	0.4485623007215812	-0.2604096327875937	-0.1007017196008775	0.3485519677848795	0.3485519684328796	0.126134800132583	0.4366265216683555	-0.0877420367186027	-0.0578289287605564	0.4573101036129856	0.4573101023592723	0.1685574965847249	-0.1115216924931332	-0.03616031227818162	0.005219685418450156
21.68	-0.2585507720738505	0.08868623699947276	-0.05848795077714235	-2.268480690289699	0.923514469519001	2.469708213448213	0.4639193453346934	-0.2606942073783773	-0.09834117850381843	0.3614549200674857	0.3614549207487541	0.1320705516526836	0.4523205362245005	-0.08914688854673647	-0.05519988315753923	0.4706293295589265	0.4706293284181605	0.1733700761075134	-0.1111934728150688	-0.03446432877268869	0.004463069152949757
21.685	-0.2658524216860296	0.08838631849871915	-0.05706678823014015	-2.270384891664029	0.9217715401074019	2.469580668351881	0.4792848790740786	-0.2609814058276169	-0.09595328039897107	0.3744773963293591	0.3744773970351999	0.1380386180174771	0.4679988907767569	-0.09054225849256183	-0.05258247761944121	0.4840234691661969	0.4840234681420237	0.1781916919998475	-0.110909447991092	-0.03277458200304638	0.003702336087600624
21.69	-0.2730998900070193	0.08807934321288002	-0.05566898779419897	-2.272288875405949	0.9199962515270981	2.469453988975933	0.4946604703960393	-0.2612715348006558	-0.09353504950689161	0.3876415207508987	0.3876415214716826	0.1440459193395442	0.483659218911498	-0.09192707586661862	-0.04997956225871732	0.4975066218528145	0.4975066209492471	0.1830260381709296	-0.1106788690401011	-0.03109208907378556	0.00293588510349021
21.695	-0.2802851408829116	0.08776393165397374	-0.05429693613541318	-2.274192776844022	0.9181837918240884	2.469328250588969	0.510047485641688	-0.2615647631868203	-0.0910845809499993	0.4009683159376344	0.4009683166630986	0.1500993360786763	0.4992993602965031	-0.09330066565888015	-0.04739431469183852	0.5110922293908404	0.511092228611858	0.1878774731295246	-0.1105112085409774	-0.02941779287623358	0.002161820269479318
21.7	-0.2874005218730588	0.08743866503992351	-0.0529525201225273	-2.276096787264891	0.9163296069014909	2.46920351937399	0.5254470629399752	-0.2618611021662265	-0.08860103557478698	0.414477488068658	0.4144774887881409	0.1562055703718355	0.5149173450861643	-0.09466276695665544	-0.04483030404795445	0.5247928985557131	0.5247928979048202	0.1927509324360132	-0.1104161003354771	-0.02775259521581466	0.001377978976714797
21.705	-0.2944388376338019	0.08710212096858773	-0.05163715138544519	-2.278001149587324	0.9144294220865776	2.469079862162714	0.5408601202932101	-0.2621603929580488	-0.08608458467580969	0.4281872319770209	0.4281872326796928	0.1623710244132358	0.5305113975986888	-0.09601353326315866	-0.0422915386165213	0.5386202417543375	0.5386202412341469	0.1976518327072985	-0.1104032190275578	-0.02609740639630824	0.0005819765882519542
21.71	-0.3013934269298806	0.0867529161677153	-0.05035180613354795	-2.279906150553636	0.9124792589500055	2.468957357372939	0.5562873734047238	-0.2624622999368348	-0.083536314020248	0.4421140472101482	0.4421140478853053	0.1686016882254938	0.5460799417708566	-0.09735351806510147	-0.03978249308118151	0.5525847325688863	0.5525847321807651	0.2025859633112231	-0.1104821227508958	-0.02445320285280393	-0.0002287350241391166
21.715	-0.3082582309226768	0.08638974978013718	-0.04909707537612351	-2.281812109305795	0.9104754493909469	2.468836105981785	0.5717293436952459	-0.2627663066470904	-0.08095810052119999	0.4562725570995267	0.4562725577369459	0.1749030193760717	0.5616215941828739	-0.09868364978591168	-0.03730811524351482	0.5666955674026172	0.5666955671464147	0.2075593520492904	-0.1106620790286629	-0.02282108154689329	-0.00105679858760005
21.72	-0.3150278537034699	0.08601144338902794	-0.04787322084379795	-2.283719362999365	0.9084146470006896	2.468716241481834	0.5871863585437976	-0.2630717141777671	-0.07835247560904703	0.4706753372413024	0.4706753378315918	0.1812798145893365	0.577135148388404	-0.1000051990287484	-0.03487381035945145	0.5809605344697095	0.5809605343435564	0.212578106550322	-0.1109518776502683	-0.02120230291229565	-0.001904878574525967
21.725	-0.3216976185865053	0.0856169776260958	-0.04668023196677281	-2.285628250567205	0.9062938350236206	2.468597938214376	0.6026585518271965	-0.2633776436287673	-0.07572248382561868	0.4853327637940313	0.4853327643289181	0.1877360836889469	0.5926195595503848	-0.1013197382277443	-0.03248539930223862	0.5953858994136237	0.5953858994137973	0.2176482434991625	-0.1113596330728629	-0.01959832161597554	-0.002775589368188995
21.73	-0.3282636151470292	0.08520552664253614	-0.04551787977685109	-2.287539095676912	0.9041103312204631	2.468481417924566	0.6181458617163884	-0.2636830448503703	-0.07307153840931148	0.5002528844519928	0.5002528849245405	0.1942749316450418	0.6080739287532251	-0.1026290921893782	-0.03014904748373092	0.6099763161978854	0.6099763163187545	0.2227755146851979	-0.1118925912499504	-0.01801080966361585	-0.003671425373198931
21.735	-0.3347227320531734	0.08477649068339704	-0.04438576400169583	-2.289452189936281	0.9018617900206368	2.468366954438643	0.633648022839556	-0.2639867126676985	-0.07040327480323856	0.515441314908694	0.515441315313463	0.2008984511875215	0.6234974858104402	-0.1039352790226337	-0.02787116400754238	0.6247347692289081	0.6247347694629966	0.2279652352090566	-0.1125569552939913	-0.016441675616045	-0.004594693727729479
21.74	-0.3410726791648011	0.08432952573846414	-0.04328334993994086	-2.291367777476373	0.8995462014113156	2.468254876196245	0.6491645612873108	-0.2642873109070581	-0.06772140554421113	0.53090117085598	0.5309011711891218	0.207607630900026	0.6388895780226554	-0.1052404428517738	-0.02565827396772314	0.6396625506692215	0.6396625510074131	0.2332221194190101	-0.1133577316871409	-0.01489308045581004	-0.00554745262237775
21.745	-0.3473119975229432	0.08386456849681426	-0.04220999405950164	-2.293286041562543	0.8971618866311303	2.468145566448519	0.6646947939342061	-0.2645834032110823	-0.06502957999245125	0.5466330425366187	0.5466330427958597	0.2144022854707583	0.6542496648309559	-0.1065467809684603	-0.02351686976576128	0.654759273570416	0.6547592740022904	0.2385501307348157	-0.11429860324764	-0.0133674482206392	-0.006531457387590166
21.75	-0.3534400406752876	0.08338185419274241	-0.04116496088097147	-2.295207093043356	0.8947074926043262	2.468039461171299	0.6802378120371124	-0.2648734878771847	-0.06233125131700483	0.5626350065742193	0.5626350067586987	0.2212810136073894	0.6695772986821041	-0.1078564687526283	-0.02145324814078392	0.670022917774208	0.6700229182884713	0.2439523514634418	-0.1153818534388879	-0.01186746785840176	-0.007548113361827025
21.755	-0.3594569151046496	0.0828819261864762	-0.04014743405586612	-2.29713096034051	0.8921819866686546	2.467937044724275	0.6957924333701461	-0.2651560347517247	-0.05962955342588371	0.5789026680288152	0.5789026681387739	0.2282411856768405	0.6848720764381732	-0.1091715844496638	-0.01947333787066778	0.6854499052901384	0.6854499058750883	0.2494308773455986	-0.116608360145811	-0.01039608383357299	-0.008598434785311818
21.76	-0.365363392270821	0.082365639753872	-0.03915652133359776	-2.299057581465429	0.8895846503794447	2.46783884306146	0.7113571393966855	-0.2654295259114989	-0.05692718971450643	0.5954292371304065	0.5954292371667637	0.2352789588943637	0.7001335744964925	-0.1104940325859875	-0.01758252159056562	0.7010352042128635	0.7010352048568296	0.2549867382409404	-0.1179776445254688	-0.008956477339299366	-0.009683012183425968
21.765	-0.3711608194778127	0.08183416479328616	-0.03819125101827943	-2.300986799057363	0.8869150695368719	2.467745414261902	0.7269300334962512	-0.2656925040386018	-0.05422633401554257	0.6122056532710118	0.6122056532349265	0.2423893168678622	0.715361297804826	-0.1118254631823603	-0.01578545726558313	0.7167724601012935	0.7167724607930166	0.2606198442288553	-0.11948794079087	-0.007552042939847289	-0.01080199185795535
21.77	-0.3768510512616058	0.08128899116504493	-0.03725055862903152	-2.302918359059419	0.884173118283282	2.467657336388588	0.7425088484609585	-0.265943631024614	-0.05152854476264013	0.6292207659499548	0.6292207658424915	0.2495661325496428	0.7305546655602057	-0.1131671856153655	-0.01408590843733589	0.7326541505823243	0.732654151311265	0.2663289573469235	-0.1211362585884936	-0.006186364880636493	-0.01195506943723761
21.775	-0.3824364101498186	0.0807319386484104	-0.03633326523739776	-2.304851912925952	0.8813589367047423	2.467575193003527	0.7580910133641575	-0.26618175671829	-0.04883469390271328	0.6464615732684622	0.6464615730904357	0.2568022536377121	0.7457130402240327	-0.1145200780440707	-0.01248659251600042	0.748671756807555	0.7486717575641139	0.2721116898089223	-0.122918425222106	-0.004863195913280572	-0.01314149736811146
21.78	-0.3879196723697091	0.08016517191585142	-0.03543805149696851	-2.306787022681201	0.8784729030501321	2.467499556950334	0.7736737712195317	-0.266405995174775	-0.0461449104271741	0.6639135082220077	0.663913507973987	0.2640896066865848	0.7608357905268955	-0.115884494585446	-0.01098905332557401	0.7648159450642563	0.7648159458398661	0.2779645281534388	-0.1248291118279329	-0.003586440231223784	-0.01436010453953899
